<?xml version="1.0" standalone="no"?>
<!DOCTYPE svg PUBLIC "-//W3C//DTD SVG 20010904//EN"
 "http://www.w3.org/TR/2001/REC-SVG-20010904/DTD/svg10.dtd">
<svg version="1.0" xmlns="http://www.w3.org/2000/svg"
 width="1128.000000pt" height="1128.000000pt" viewBox="0 0 1128.000000 1128.000000"
 preserveAspectRatio="xMidYMid meet">

<g transform="translate(0.000000,1128.000000) scale(0.100000,-0.100000)"
fill="#000000" stroke="none">
<path d="M3503 8263 c-15 -5 -17 -29 -4 -37 16 -10 41 5 41 25 0 19 -12 23
-37 12z"/>
<path d="M6102 8068 c-15 -18 1 -41 24 -36 23 4 26 41 3 46 -9 1 -21 -3 -27
-10z"/>
<path d="M4916 7715 c-6 -17 17 -31 34 -20 5 3 10 13 10 21 0 19 -36 18 -44
-1z"/>
<path d="M7254 7645 c-4 -9 -2 -21 4 -27 15 -15 44 -1 40 19 -4 23 -36 29 -44
8z"/>
<path d="M5053 7603 c-17 -6 -16 -40 1 -46 17 -7 26 1 26 24 0 21 -10 28 -27
22z"/>
<path d="M5760 6851 c-16 -31 -12 -41 19 -41 30 0 45 19 35 45 -9 21 -41 19
-54 -4z"/>
<path d="M3700 6474 c-18 -21 9 -49 39 -39 23 7 27 25 9 43 -16 16 -33 15 -48
-4z"/>
<path d="M5967 5649 c-26 -15 -20 -37 18 -70 35 -31 61 -95 52 -130 -3 -10 2
-20 10 -23 13 -5 14 0 9 29 -7 37 0 43 35 25 14 -8 19 -7 19 2 1 10 4 9 13 -2
7 -9 27 -14 50 -13 58 2 81 -25 72 -85 -4 -30 -16 -57 -33 -74 l-26 -28 27 0
c15 0 27 -5 27 -11 0 -6 43 -97 95 -202 91 -182 107 -227 85 -227 -5 0 -10 -8
-9 -17 0 -11 3 -13 6 -5 10 26 22 10 33 -45 6 -32 14 -68 17 -80 3 -13 0 -23
-6 -23 -15 0 -34 38 -42 85 l-6 40 -2 -42 c-1 -35 6 -52 35 -90 42 -55 42 -60
-1 -236 -14 -58 -24 -110 -23 -114 2 -8 -9 -75 -18 -105 -6 -19 -84 -68 -108
-68 -9 0 -35 12 -57 26 l-41 26 21 22 c26 28 27 36 2 29 -11 -3 -17 -11 -15
-18 7 -17 -15 -30 -28 -17 -7 7 -6 18 3 33 7 13 14 33 15 44 2 11 8 49 12 85
5 36 26 109 47 164 36 96 40 128 20 179 -10 25 7 20 28 -8 14 -20 16 -29 7
-47 -10 -21 -10 -21 3 -6 8 10 25 22 38 27 22 9 22 10 3 10 -11 1 -31 12 -44
26 -13 14 -28 25 -32 25 -28 0 -58 57 -58 112 0 53 -40 224 -69 296 -24 60
-27 98 -8 105 6 3 2 6 -9 6 -28 1 -83 25 -110 48 -44 37 -54 81 -29 129 9 19
11 32 5 38 -20 20 -35 -14 -35 -78 0 -75 11 -91 91 -133 30 -15 54 -33 54 -39
0 -6 13 -52 29 -101 35 -106 61 -223 61 -278 0 -25 11 -60 30 -94 39 -70 38
-106 -4 -239 -19 -59 -37 -124 -40 -144 -3 -21 -8 -54 -11 -73 -4 -21 -22 -53
-45 -81 -22 -25 -40 -49 -40 -53 0 -12 -92 -41 -128 -41 -20 0 -41 11 -63 31
-18 17 -44 35 -57 40 -19 7 -22 13 -15 32 10 27 10 112 0 150 -5 19 -14 27
-30 27 -21 0 -24 6 -34 91 -21 161 -68 219 -179 219 -66 0 -97 -24 -120 -93
-22 -69 -25 -73 -39 -54 -16 22 -58 37 -104 37 -55 0 -94 -45 -140 -166 -21
-54 -43 -100 -49 -102 -5 -1 -16 3 -23 10 -65 62 -112 72 -177 39 -57 -29 -99
-77 -149 -171 -25 -47 -59 -108 -76 -136 l-30 -51 -66 -7 c-36 -3 -118 -15
-181 -25 -63 -11 -209 -36 -325 -56 -115 -20 -270 -49 -343 -66 -127 -29 -275
-80 -297 -102 -7 -7 -3 -8 10 -3 102 38 213 70 321 95 112 26 703 130 821 144
44 5 62 -5 45 -26 -6 -7 -40 -70 -77 -142 -36 -71 -79 -146 -94 -165 -80 -101
-101 -134 -101 -158 0 -15 -14 -49 -30 -77 -16 -27 -30 -62 -30 -77 0 -31 -2
-31 125 -28 44 1 79 7 94 17 21 14 23 20 18 65 -12 100 42 207 163 321 59 56
90 68 90 33 0 -8 11 -50 25 -93 28 -89 54 -113 124 -113 38 0 41 -2 61 -47 12
-27 24 -66 28 -88 3 -22 12 -46 21 -53 20 -15 123 -6 165 15 25 13 28 19 23
49 -3 18 -17 56 -31 85 -14 28 -26 54 -26 59 0 4 34 13 76 19 85 12 127 33
143 68 6 12 14 23 18 23 11 0 43 -80 43 -106 0 -34 -39 -115 -81 -168 -22 -27
-39 -54 -39 -60 0 -14 99 -43 151 -45 27 -1 47 7 77 31 23 18 53 41 67 52 25
17 26 23 23 77 -2 33 1 59 5 59 4 0 22 -7 39 -16 28 -15 36 -15 101 1 70 17
190 14 202 -5 10 -16 -37 -60 -77 -70 -87 -24 -112 -91 -62 -166 15 -21 30
-41 35 -44 4 -3 13 -36 19 -73 10 -54 18 -72 42 -92 36 -30 76 -32 110 -5 32
24 67 155 50 186 -7 14 -4 33 14 74 21 45 69 98 304 330 232 229 284 284 305
330 13 30 25 65 25 77 0 25 -8 26 205 -3 61 -8 166 -21 235 -29 69 -9 233 -34
364 -55 132 -22 241 -38 243 -36 12 12 -350 77 -592 106 -94 11 -234 30 -313
42 l-143 21 -48 47 c-27 26 -61 50 -76 53 -16 2 -76 1 -134 -4 -57 -5 -108 -6
-112 -2 -9 9 12 127 48 276 24 100 25 114 15 193 -20 151 -50 238 -149 432
l-94 184 8 68 c5 37 6 76 2 87 -11 29 -150 163 -192 184 -62 32 -82 38 -100
28z m58 -39 c3 -6 16 -10 28 -10 27 0 74 -35 59 -44 -5 -3 -26 1 -45 9 -19 8
-37 12 -39 9 -3 -2 -11 2 -18 11 -7 8 -19 15 -26 15 -14 0 -19 22 -8 33 8 7
40 -8 49 -23z m73 -72 c21 12 92 -30 92 -53 0 -14 -3 -14 -24 0 -13 9 -37 17
-54 19 -36 5 -72 23 -72 37 0 6 7 6 20 -1 13 -7 26 -7 38 -2z m-403 -897 c13
-20 29 -55 35 -77 18 -61 7 -223 -29 -419 -17 -93 -35 -226 -41 -295 -14 -178
-19 -413 -9 -403 5 5 10 21 11 36 1 16 6 23 11 18 16 -16 -2 -80 -26 -95 -12
-8 -38 -14 -59 -13 -20 0 -44 -6 -54 -14 -10 -8 -39 -14 -75 -14 l-58 0 20 30
c11 17 38 66 60 110 40 79 41 81 34 160 -14 160 -23 233 -50 405 -28 181 -30
290 -5 430 5 30 12 72 15 92 7 44 47 95 78 100 12 2 44 -1 70 -6 40 -7 53 -15
72 -45z m-324 -78 c8 -10 23 -35 32 -57 10 -21 20 -36 23 -33 3 3 1 14 -5 26
-8 14 -8 22 0 26 6 4 12 5 15 3 2 -3 -2 -74 -10 -159 -14 -166 -31 -219 -95
-313 -75 -108 -142 -275 -156 -386 -6 -50 -3 -63 29 -134 39 -85 42 -101 24
-112 -25 -16 -93 -22 -107 -11 -12 10 -14 9 -9 -5 4 -9 1 -19 -7 -21 -18 -8
-27 4 -15 18 7 9 6 16 -5 25 -8 7 -15 21 -15 32 0 11 -5 29 -11 40 -22 40 -21
157 1 220 11 32 20 78 20 102 0 24 9 91 20 147 11 57 24 151 28 209 6 67 16
121 29 150 11 25 33 77 48 115 36 89 77 135 120 135 18 0 38 -8 46 -17z m-303
-212 c22 -16 43 -34 46 -39 6 -10 -12 -249 -23 -302 -5 -27 -16 -40 -46 -57
-61 -34 -106 -54 -116 -51 -5 2 12 32 37 68 45 64 124 201 124 214 0 18 -21
-11 -85 -119 -62 -104 -83 -129 -185 -224 -172 -159 -227 -223 -246 -287 -8
-30 -20 -54 -25 -54 -6 0 -10 -19 -9 -42 1 -74 -5 -92 -31 -99 -37 -11 -61
-10 -54 1 3 6 17 10 30 10 12 0 25 7 29 15 7 19 -2 19 -56 1 -69 -23 -108 -29
-108 -17 0 6 15 37 33 70 l33 59 47 -4 c29 -2 46 0 42 6 -3 6 -26 10 -51 10
-30 0 -44 4 -44 13 0 8 27 47 60 88 33 41 84 121 112 179 58 117 209 398 254
475 33 55 118 115 165 115 14 0 44 -13 67 -29z m747 8 c4 -5 0 -18 -8 -27 -8
-9 -25 -44 -36 -77 -23 -65 -26 -79 -10 -52 6 9 13 16 17 13 4 -2 8 12 10 31
2 39 18 73 32 73 14 0 12 -19 -7 -81 -9 -30 -15 -77 -14 -106 3 -50 2 -53 -22
-53 -25 0 -65 -35 -53 -47 3 -4 15 3 26 15 26 28 60 29 60 3 0 -11 3 -26 6
-35 4 -10 1 -16 -7 -16 -8 0 -27 -18 -43 -40 -17 -22 -33 -40 -38 -40 -4 0 -8
-5 -8 -11 0 -6 13 1 30 14 16 14 39 28 50 32 11 3 20 14 20 23 0 12 3 13 11 5
18 -18 2 -46 -41 -72 -22 -14 -38 -27 -35 -29 2 -3 16 3 29 12 35 23 53 20 60
-9 4 -14 10 -24 14 -24 21 3 21 -4 3 -30 -12 -16 -21 -37 -20 -48 0 -14 3 -12
10 7 22 53 69 81 69 40 0 -11 -4 -20 -10 -20 -5 0 -10 -7 -10 -16 0 -9 -9 -18
-20 -21 -24 -6 -26 -26 -5 -43 13 -10 15 -9 15 12 0 14 9 33 20 43 11 10 20
28 20 40 0 17 25 43 93 96 100 80 245 171 259 163 4 -3 8 1 8 9 0 19 21 27 70
27 l38 0 4 -65 3 -66 -65 -67 c-36 -37 -96 -116 -134 -177 -38 -60 -84 -132
-104 -158 -31 -43 -38 -47 -63 -42 -16 4 -52 8 -81 10 -29 1 -52 6 -52 11 10
67 12 106 5 89 -5 -11 -10 -32 -10 -46 -1 -42 -22 -59 -78 -66 -40 -4 -58 -2
-78 11 -16 11 -34 14 -52 10 l-26 -7 7 180 c3 98 13 217 21 264 9 46 25 136
36 199 11 63 24 127 30 143 12 27 42 37 54 16z m400 -194 c17 -12 38 -25 49
-29 24 -8 10 -25 -46 -54 -45 -24 -97 -60 -221 -154 -42 -32 -80 -58 -85 -58
-19 0 -42 39 -52 88 -5 28 -15 60 -22 71 -7 11 -10 23 -7 26 3 3 39 14 80 26
41 11 101 29 134 38 58 17 60 17 71 -1 5 -10 13 -16 17 -12 4 4 16 -1 27 -11
11 -10 20 -14 20 -10 0 5 -16 23 -37 41 -36 32 -36 33 -19 58 18 29 28 27 91
-19z m-769 -111 c9 -150 5 -157 -87 -152 -38 2 -73 8 -78 13 -6 6 8 36 36 80
26 39 59 96 75 129 17 32 33 54 38 50 5 -5 12 -59 16 -120z m434 93 c16 -12
29 -26 29 -30 1 -11 -68 -39 -78 -33 -11 7 -22 76 -15 88 8 12 29 4 64 -25z
m834 12 c15 -11 36 -39 47 -61 19 -37 19 -42 5 -84 -20 -58 -131 -179 -406
-442 -202 -193 -216 -208 -224 -251 -5 -25 -16 -51 -25 -58 -10 -8 -11 -12 -4
-13 18 0 37 -40 25 -52 -7 -7 -19 -2 -37 16 -34 34 -39 33 -20 -5 18 -34 10
-74 -24 -118 -18 -24 -20 -24 -45 -8 -35 23 -35 63 -1 79 14 6 26 20 27 32 0
12 2 26 2 33 1 6 12 23 25 37 30 31 21 46 -9 16 -17 -17 -28 -19 -57 -14 -28
5 -35 4 -31 -7 2 -8 17 -15 31 -17 31 -4 34 -18 11 -51 -13 -18 -18 -20 -25
-10 -5 8 -9 24 -9 36 0 12 -12 31 -30 43 -36 26 -58 87 -41 118 6 12 34 29 62
39 46 16 59 28 123 113 39 53 98 140 131 194 72 118 143 198 236 267 76 57 96
88 23 37 -38 -27 -47 -30 -54 -18 -14 22 -12 126 3 138 23 20 82 30 173 31 78
1 95 -2 118 -20z m-320 -14 c-7 -17 -30 -20 -39 -6 -4 8 9 15 37 20 4 0 5 -6
2 -14z m-1318 -211 c-4 -10 -9 -51 -13 -93 -3 -42 -13 -92 -21 -111 -8 -19
-18 -60 -21 -90 l-6 -55 -41 -3 c-61 -5 -81 18 -119 134 -23 71 -29 103 -22
112 14 18 82 52 104 52 10 1 43 16 73 35 63 38 75 42 66 19z m326 -50 l28 6 0
-94 c0 -87 -2 -97 -25 -125 -31 -35 -42 -40 -135 -50 l-70 -7 0 52 c0 49 40
195 61 220 6 8 24 9 61 2 29 -5 65 -7 80 -4z m78 -76 c0 -104 -14 -105 -26 -1
-7 65 -2 93 16 93 6 0 10 -36 10 -92z m20 -130 c0 -19 -2 -20 -10 -8 -13 19
-13 30 0 30 6 0 10 -10 10 -22z m90 -307 c0 -11 -42 -43 -48 -37 -2 3 1 14 8
25 11 21 40 29 40 12z m522 -233 c-6 -6 -7 0 -4 19 5 21 7 23 10 9 2 -10 0
-22 -6 -28z m3 -28 c-3 -5 -15 -15 -26 -21 -19 -10 -20 -9 -9 10 6 12 18 21
26 21 8 0 12 -4 9 -10z"/>
<path d="M5695 4450 c3 -5 8 -10 11 -10 2 0 4 5 4 10 0 6 -5 10 -11 10 -5 0
-7 -4 -4 -10z"/>
<path d="M5558 4443 c7 -3 16 -2 19 1 4 3 -2 6 -13 5 -11 0 -14 -3 -6 -6z"/>
<path d="M5295 4350 c3 -5 16 -10 28 -10 18 0 19 2 7 10 -20 13 -43 13 -35 0z"/>
<path d="M5367 4239 c-10 -28 -17 -53 -14 -55 6 -6 39 84 35 96 -2 6 -11 -13
-21 -41z"/>
<path d="M5740 4104 c0 -8 5 -12 10 -9 6 3 10 10 10 16 0 5 -4 9 -10 9 -5 0
-10 -7 -10 -16z"/>
<path d="M6257 4049 c-9 -6 -17 -18 -17 -27 0 -14 4 -13 22 6 24 24 22 36 -5
21z"/>
<path d="M5720 3991 c-7 -15 -7 -21 0 -21 12 0 25 28 17 36 -3 3 -10 -4 -17
-15z"/>
<path d="M6257 3955 c3 -27 7 -52 9 -54 7 -8 2 54 -6 79 -6 17 -7 9 -3 -25z"/>
<path d="M5923 3740 c-7 -24 -10 -46 -8 -49 8 -7 26 52 23 73 -2 14 -7 6 -15
-24z"/>
<path d="M6085 3724 l-30 -26 35 23 c45 29 45 29 34 29 -5 0 -22 -12 -39 -26z"/>
<path d="M5885 3698 c4 -9 2 -26 -5 -37 -6 -12 -7 -21 -1 -21 14 0 23 52 11
64 -8 8 -9 7 -5 -6z"/>
<path d="M6050 4060 c46 -25 63 -25 25 0 -16 11 -37 20 -45 20 -8 -1 1 -9 20
-20z"/>
<path d="M5990 4010 c34 -11 72 -12 66 -2 -3 5 -24 9 -48 9 -35 1 -38 0 -18
-7z"/>
<path d="M6038 3439 c-10 -5 -18 -14 -18 -19 0 -17 15 -11 28 10 14 23 13 23
-10 9z"/>
<path d="M6110 5447 c0 -9 -7 -17 -16 -17 -8 0 -12 -5 -9 -10 5 -8 11 -7 20 0
8 7 18 9 24 6 5 -3 29 -8 52 -11 41 -4 43 -4 25 10 -11 8 -32 15 -46 15 -14 0
-31 5 -38 12 -9 9 -12 8 -12 -5z"/>
<path d="M6000 5425 c0 -22 34 -65 50 -65 27 0 25 11 -8 43 -27 26 -42 33 -42
22z"/>
<path d="M4640 5400 c0 -16 5 -21 23 -18 12 2 22 10 22 18 0 8 -10 16 -22 18
-18 3 -23 -2 -23 -18z"/>
<path d="M7206 5404 c-13 -12 -14 -20 -6 -28 13 -13 45 4 45 24 0 21 -21 23
-39 4z"/>
<path d="M6138 5392 c-19 -4 -24 -27 -9 -37 6 -3 15 4 21 16 13 24 12 27 -12
21z"/>
<path d="M6170 5201 c0 -5 5 -13 10 -16 6 -3 10 -2 10 4 0 5 -4 13 -10 16 -5
3 -10 2 -10 -4z"/>
<path d="M6250 5121 c0 -6 4 -13 10 -16 6 -3 7 1 4 9 -7 18 -14 21 -14 7z"/>
<path d="M3945 4710 c-8 -14 3 -30 21 -30 8 0 14 9 14 20 0 21 -24 28 -35 10z"/>
<path d="M3793 4545 c-3 -9 -3 -18 0 -22 10 -10 37 6 37 22 0 20 -29 20 -37 0z"/>
<path d="M7177 4523 c-8 -8 -9 -43 -1 -43 16 0 44 23 44 35 0 15 -31 21 -43 8z"/>
<path d="M3845 4481 c-8 -15 3 -31 21 -31 9 0 14 7 12 17 -4 20 -24 28 -33 14z"/>
<path d="M6385 4310 c-10 -11 -13 -20 -8 -20 13 0 38 29 31 35 -3 3 -13 -4
-23 -15z"/>
<path d="M6246 4267 c3 -10 9 -15 12 -12 3 3 0 11 -7 18 -10 9 -11 8 -5 -6z"/>
</g>
</svg>
